<?xml version="1.0" encoding="utf-8"?>
<!-- Generator: Adobe Illustrator 25.2.0, SVG Export Plug-In . SVG Version: 6.00 Build 0)  -->
<svg version="1.1" id="Layer_1" xmlns="http://www.w3.org/2000/svg" xmlns:xlink="http://www.w3.org/1999/xlink" x="0px" y="0px"
	 viewBox="0 0 301 304" style="enable-background:new 0 0 301 304;" xml:space="preserve">
<style type="text/css">
	.st0{fill-rule:evenodd;clip-rule:evenodd;fill:url(#SVGID_1_);}
	.st1{fill-rule:evenodd;clip-rule:evenodd;fill:#5F295F;}
	.st2{fill:#FFFFFF;}
	.st3{fill-rule:evenodd;clip-rule:evenodd;fill:url(#SVGID_2_);}
	.st4{fill-rule:evenodd;clip-rule:evenodd;fill:url(#SVGID_3_);}
	.st5{fill-rule:evenodd;clip-rule:evenodd;fill:#FFFFFF;}
	.st6{fill-rule:evenodd;clip-rule:evenodd;fill:url(#SVGID_4_);}
	.st7{fill-rule:evenodd;clip-rule:evenodd;fill:url(#SVGID_5_);}
	.st8{fill-rule:evenodd;clip-rule:evenodd;fill:url(#SVGID_6_);}
	.st9{fill-rule:evenodd;clip-rule:evenodd;fill:url(#SVGID_7_);}
	.st10{fill-rule:evenodd;clip-rule:evenodd;fill:url(#SVGID_8_);}
	.st11{fill:#5F295F;}
</style>
<g>
	<g>
		<g>
			<g>
				<g>
					<g>
						
							<linearGradient id="SVGID_1_" gradientUnits="userSpaceOnUse" x1="6316.019" y1="-3448.2727" x2="6316.019" y2="-3506.7473" gradientTransform="matrix(1 0 0 1 -6228 3567.4016)">
							<stop  offset="0" style="stop-color:#7E7C7D"/>
							<stop  offset="0.4609" style="stop-color:#FFFFFF"/>
							<stop  offset="0.9805" style="stop-color:#7B7979"/>
							<stop  offset="1" style="stop-color:#7B7979"/>
						</linearGradient>
						<path class="st0" d="M67.3,110.6c-11.4-11.4-11.4-29.9,0-41.3c11.4-11.4,29.9-11.4,41.4,0c11.4,11.4,11.4,29.9,0,41.3
							C97.3,122,78.8,122,67.3,110.6z"/>
						<path class="st1" d="M70.8,107.1c-9.5-9.5-9.5-24.9,0-34.5c9.5-9.5,24.9-9.5,34.5,0c9.5,9.5,9.5,24.9,0,34.5
							C95.7,116.6,80.3,116.6,70.8,107.1z"/>
					</g>
				</g>
				<g>
					<path class="st2" d="M88,74.8c0,0-4.6,4.5-12.5,4.5c0,0,0,13.1,0,15.1c0,3.2,2.2,6.4,12.5,11.7c9.8-5,12.5-8.5,12.5-11.7
						c0-2.4,0-15.1,0-15.1C92.6,79.4,88,74.8,88,74.8z M98.4,95.3c-0.4,0.6-1.1,1.1-2,1.5c-0.9,0.4-2,0.7-3.4,0.7
						c-1.7,0-3.1-0.5-4.2-1.6c-1.1-1-1.6-2.4-1.6-4h-3.4v4h-2.7v-4h-3.5v-2.5h3.5v-3.8h2.7v3.8h3.4v-0.7c0-1.7,0.5-3.1,1.6-4.2
						c1.1-1.1,2.4-1.6,4.1-1.6c1.7,0,3.1,0.4,4,1.3c0.9,0.8,1.4,1.9,1.4,3.3l0,0.1h-2.7c-0.1-0.8-0.3-1.3-0.7-1.8
						c-0.4-0.4-1.1-0.7-1.9-0.7c-0.9,0-1.6,0.3-2.1,1c-0.5,0.7-0.8,1.5-0.8,2.6v3c0,1.1,0.3,1.9,0.8,2.6c0.5,0.7,1.3,1,2.2,1
						c0.7,0,1.2-0.1,1.6-0.2c0.4-0.1,0.7-0.3,0.9-0.5v-2.6H93V90h5.3V95.3z"/>
					<path class="st2" d="M88,72.2c0,0-5.4,5.3-14.6,5.3c0,0,0,15.4,0,17.6c0,3.7,2.6,7.5,14.6,13.6c11.4-5.8,14.6-10,14.6-13.6
						c0-2.8,0-17.6,0-17.6C93.4,77.5,88,72.2,88,72.2z M101.5,94.6c0,1.9-0.9,3.8-2.8,5.7c-2.2,2.2-5.6,4.4-10.5,6.9
						c-0.1,0-0.1,0-0.2,0c-0.1,0-0.1,0-0.2,0c-5.1-2.6-8.7-4.9-10.8-7c-1.8-1.8-2.7-3.6-2.7-5.6c0-2,0-15.7,0-15.9
						c0-0.2,0.2-0.4,0.4-0.4c8,0,12.8-4.6,12.8-4.6c0.1-0.1,0.2-0.1,0.3-0.1c0.1,0,0.2,0,0.3,0.1c0,0,4.8,4.6,12.8,4.6
						c0.1,0,0.2,0,0.3,0.1c0.1,0.1,0.1,0.2,0.1,0.3C101.6,78.9,101.5,92.2,101.5,94.6z"/>
				</g>
			</g>
		</g>
		<g>
			<g>
				
					<linearGradient id="SVGID_2_" gradientUnits="userSpaceOnUse" x1="1842.7509" y1="-1490.4755" x2="1842.8269" y2="-1548.949" gradientTransform="matrix(1 -1.300000e-03 1.300000e-03 1 -1690.2388 1585.5496)">
					<stop  offset="0" style="stop-color:#7E7C7D"/>
					<stop  offset="0.4609" style="stop-color:#FFFFFF"/>
					<stop  offset="0.9805" style="stop-color:#7B7979"/>
					<stop  offset="1" style="stop-color:#7B7979"/>
				</linearGradient>
				<path class="st3" d="M121.3,63.5c0-16.2,13.1-29.3,29.2-29.3c16.2,0,29.3,13.1,29.3,29.2c0,16.2-13,29.3-29.2,29.3
					C134.5,92.7,121.4,79.6,121.3,63.5z"/>
				<path class="st1" d="M126.2,63.5c0-13.5,10.9-24.4,24.3-24.4c13.5,0,24.4,10.9,24.4,24.3c0,13.4-10.9,24.4-24.3,24.4
					C137.2,87.8,126.2,76.9,126.2,63.5z"/>
				<g>
					<path class="st2" d="M161.3,61.9c-1.8-1.3-4.6-1.9-8.8-0.8c1.1,0.6,1.8,1.8,1.8,3.2c0,1.3-0.6,2.4-1.6,3
						c-0.3,0.2-0.5,0.3-0.8,0.4c-0.4,0.2-0.8,0.2-1.3,0.2c-2.1,0-3.7-1.7-3.7-3.7c0-1.3,0.7-2.5,1.8-3.2c-1.5-0.2-6-0.9-8.3,0.1
						c-3.1,1.3-4.9,6.6-6,9.9c-0.3,0.8,0.2,4.4,3,1.5c1.5-2.9,1.5-3.4,1.5-3.4s0.8-2.9,1.3,0.1c0.5,3,0.5,8.5,1.6,9.5h6.3l0.1-2.8
						c0,0-1.3,1.8-2.2,0c-0.6-1.1-0.5-4-0.1-5.2c0.3-0.8,1.5-2.1,2.8-2.2c1-0.1,2.6-0.1,3.8,0v0c0.1,0,0.2,0,0.2,0.1
						c0.6,0.2,1.7,0.9,2.3,2.3c0.3,0.7,0.5,1.6,0.4,2.7c0,0.2,0,0.4-0.1,0.7c0,0.3-0.1,0.7-0.2,1c0,0-0.6,2.5-2.3,0.6l0,2.8h6.6
						v-4.5l2.8,0.1l-1.6-5.9c0,0-0.3-2,0.8,0.2c1.1,2.2,1.3,3.1,2,4c0.5,0.6,3.4,2.1,2.4-2C164.8,66.8,164.4,64.2,161.3,61.9z"/>
					<path class="st2" d="M138.9,53.9c0,3,2.5,5.5,5.5,5.5c3,0,5.5-2.5,5.5-5.5c0-3-2.5-5.5-5.5-5.5
						C141.3,48.4,138.9,50.9,138.9,53.9z"/>
					<path class="st2" d="M156.6,59.4c3,0,5.5-2.5,5.5-5.5c0-3-2.5-5.5-5.5-5.5c-3,0-5.5,2.5-5.5,5.5
						C151.1,57,153.6,59.4,156.6,59.4z"/>
				</g>
			</g>
		</g>
		<g>
			<g>
				
					<linearGradient id="SVGID_3_" gradientUnits="userSpaceOnUse" x1="1754.0286" y1="-1401.8562" x2="1754.1046" y2="-1460.3297" gradientTransform="matrix(1 -1.300000e-03 1.300000e-03 1 -1690.2388 1585.5496)">
					<stop  offset="0" style="stop-color:#7E7C7D"/>
					<stop  offset="0.4609" style="stop-color:#FFFFFF"/>
					<stop  offset="0.9805" style="stop-color:#7B7979"/>
					<stop  offset="1" style="stop-color:#7B7979"/>
				</linearGradient>
				<path class="st4" d="M32.7,152.2c0-16.2,13-29.3,29.2-29.3c16.1,0,29.2,13,29.3,29.2c0,16.1-13.1,29.3-29.2,29.3
					C45.9,181.4,32.8,168.4,32.7,152.2z"/>
				<path class="st1" d="M37.6,152.2c0-13.5,10.9-24.4,24.3-24.4c13.5,0,24.4,10.9,24.4,24.3c0,13.5-10.9,24.4-24.3,24.4
					C48.5,176.6,37.6,165.7,37.6,152.2z"/>
				<g>
					<path class="st5" d="M58.8,145.3h-0.9v1.7h0.9c0.6,0,0.8-0.3,0.8-0.8C59.7,145.6,59.4,145.3,58.8,145.3z"/>
					<path class="st5" d="M62.1,139.1c-4.3,0-7.7,3.5-7.7,7.7c0,4.3,3.5,7.7,7.7,7.7c4.3,0,7.7-3.5,7.7-7.7
						C69.9,142.5,66.4,139.1,62.1,139.1z M59,148.3h-1.1v2.3c0,0.1-0.1,0.1-0.1,0.1h-1.2c-0.1,0-0.1-0.1-0.1-0.1v-6.4
						c0-0.1,0.1-0.1,0.1-0.1H59c1.3,0,2.2,0.8,2.2,2.2C61.2,147.5,60.4,148.3,59,148.3z M63.3,150.6c0,0.1-0.1,0.1-0.1,0.1h-1.2
						c-0.1,0-0.1-0.1-0.1-0.1v-6.4c0-0.1,0.1-0.1,0.1-0.1h1.2c0.1,0,0.1,0.1,0.1,0.1V150.6z M68.1,145.3h-2.6v1.6h2.3
						c0.1,0,0.1,0.1,0.1,0.1v1c0,0.1-0.1,0.1-0.1,0.1h-2.3v2.4c0,0.1-0.1,0.1-0.1,0.1h-1.2c-0.1,0-0.1-0.1-0.1-0.1v-6.4
						c0-0.1,0.1-0.1,0.1-0.1h4c0.1,0,0.1,0.1,0.1,0.1v1C68.3,145.2,68.2,145.3,68.1,145.3z"/>
				</g>
				<g>
					<g>
						<g>
							<path class="st5" d="M69.6,157.1c-0.3,0.1-0.7,0.4-0.9,0.6l-0.4,0.7c-0.4,0.6-1.2,1-2,1c-0.1,0-0.3,0-0.4,0l-0.8-0.2
								c0,0-0.1,0-0.2,0c-0.3,0-0.7,0.1-0.9,0.2l-0.7,0.4c-0.1,0.1-0.3,0.2-0.5,0.2l4.5,11.8l2.8-4.1l4.8,1.2l-4.6-12L69.6,157.1z"
								/>
							<path class="st5" d="M60.8,159.8l-0.7-0.4c-0.2-0.1-0.5-0.2-0.9-0.2c-0.1,0-0.1,0-0.2,0l-0.8,0.2c-0.1,0-0.3,0-0.4,0
								c-0.8,0-1.6-0.4-2-1l-0.4-0.7c-0.2-0.2-0.6-0.5-0.9-0.6l-0.8-0.2l-4.6,12l4.8-1.2l2.8,4.1l4.5-11.8
								C61.1,160,61,159.9,60.8,159.8z"/>
						</g>
						<path class="st5" d="M70.9,146.8c0,4.8-3.9,8.8-8.8,8.8c-4.8,0-8.8-3.9-8.8-8.8c0-4.8,3.9-8.8,8.8-8.8
							C66.9,138.1,70.9,142,70.9,146.8z M60.7,135c-0.4,0.3-1.2,0.5-1.7,0.3l-0.8-0.2c-0.5-0.1-1.2,0.2-1.5,0.6l-0.4,0.7
							c-0.3,0.4-1,0.9-1.5,1l-0.8,0.2c-0.5,0.1-1,0.6-1.1,1.1l-0.2,0.8c-0.1,0.5-0.5,1.2-1,1.5l-0.7,0.4c-0.4,0.3-0.7,1-0.6,1.5
							l0.2,0.8c0.1,0.5-0.1,1.3-0.3,1.7l-0.4,0.6c-0.3,0.4-0.3,1.2,0,1.6l0.4,0.6c0.3,0.4,0.5,1.2,0.3,1.7l-0.2,0.8
							c-0.1,0.5,0.2,1.2,0.6,1.5l0.7,0.4c0.4,0.3,0.9,1,1,1.5l0.2,0.8c0.1,0.5,0.6,1,1.1,1.1l0.8,0.2c0.5,0.1,1.2,0.5,1.5,1l0.4,0.7
							c0.3,0.4,1,0.7,1.5,0.6l0.8-0.2c0.5-0.1,1.3,0.1,1.7,0.3l0.6,0.4c0.4,0.3,1.2,0.3,1.6,0l0.7-0.4c0.4-0.3,1.2-0.5,1.7-0.3
							l0.8,0.2c0.5,0.1,1.2-0.2,1.5-0.6l0.4-0.7c0.3-0.4,1-0.9,1.5-1l0.8-0.2c0.5-0.1,1-0.6,1.1-1.1l0.2-0.8c0.1-0.5,0.5-1.2,1-1.5
							l0.6-0.4c0.4-0.3,0.7-1,0.6-1.5l-0.2-0.8c-0.1-0.5,0.1-1.3,0.3-1.7l0.4-0.6c0.3-0.4,0.3-1.2,0-1.6l-0.4-0.6
							c-0.3-0.4-0.5-1.2-0.3-1.7l0.2-0.8c0.1-0.5-0.2-1.2-0.6-1.5l-0.6-0.4c-0.4-0.3-0.9-1-1-1.5l-0.2-0.8c-0.1-0.5-0.6-1-1.1-1.1
							l-0.8-0.2c-0.5-0.1-1.2-0.5-1.5-1l-0.4-0.7c-0.3-0.4-1-0.7-1.5-0.6l-0.8,0.2c-0.5,0.1-1.3-0.1-1.7-0.3l-0.7-0.4
							c-0.4-0.3-1.2-0.3-1.6,0L60.7,135z"/>
					</g>
				</g>
			</g>
		</g>
		<g>
			<g>
				<g>
					<g>
						
							<linearGradient id="SVGID_4_" gradientUnits="userSpaceOnUse" x1="6316.0103" y1="-3322.9866" x2="6316.0103" y2="-3381.4592" gradientTransform="matrix(1 0 0 1 -6228 3567.4016)">
							<stop  offset="0" style="stop-color:#7E7C7D"/>
							<stop  offset="0.4609" style="stop-color:#FFFFFF"/>
							<stop  offset="0.9805" style="stop-color:#7B7979"/>
							<stop  offset="1" style="stop-color:#7B7979"/>
						</linearGradient>
						<path class="st6" d="M67.3,235.8c-11.4-11.4-11.4-29.9,0-41.3c11.4-11.4,29.9-11.4,41.4,0c11.4,11.4,11.4,29.9,0,41.3
							C97.3,247.3,78.8,247.3,67.3,235.8z"/>
						<path class="st1" d="M70.8,232.4c-9.5-9.5-9.5-24.9,0-34.5c9.5-9.5,24.9-9.5,34.5,0c9.5,9.5,9.5,24.9,0,34.5
							C95.7,241.9,80.3,241.9,70.8,232.4z"/>
					</g>
				</g>
				<g>
					<rect x="71.8" y="225.5" class="st2" width="17.6" height="2.2"/>
					<path class="st2" d="M86.7,222.7H74.6c-0.9,0-1.6,1.1-1.8,2h15.6C88.3,223.8,87.6,222.7,86.7,222.7z"/>
					
						<rect x="80.5" y="204" transform="matrix(0.4542 -0.8909 0.8909 0.4542 -139.8967 189.7235)" class="st2" width="8.8" height="10"/>
					<path class="st2" d="M105.2,216.2l-12.6-5.7l-2,3.9l12,6.9c0.9,0.5,3.3,0.8,4.2-1.1C107.8,218.4,106.1,216.6,105.2,216.2z"/>
					<polygon class="st2" points="91,209.8 89,213.5 89.9,214 91.9,210.2 					"/>
					<path class="st2" d="M92.9,201.3l-6.5-3.3c-0.6-0.3-1.3-0.1-1.6,0.5l8.7,4.4C93.8,202.3,93.5,201.6,92.9,201.3z"/>
					<path class="st2" d="M82.6,201.9l9.3,4.8c0.5,0.2,1.1,0.1,1.3-0.4l0.5-0.9c0.2-0.5,0.1-1.1-0.4-1.3l-9.3-4.8
						c-0.5-0.2-1.1,0-1.3,0.4l-0.5,0.9C82,201.1,82.2,201.7,82.6,201.9z"/>
					<path class="st2" d="M76.9,216.8l6.5,3.3c0.6,0.3,1.3,0.1,1.6-0.5l-8.7-4.4C76,215.8,76.3,216.5,76.9,216.8z"/>
					<path class="st2" d="M76.4,214.1l9.3,4.8c0.5,0.2,1.1,0.1,1.3-0.4l0.5-0.9c0.2-0.5,0.1-1.1-0.4-1.3l-9.3-4.8
						c-0.5-0.2-1.1-0.1-1.3,0.4l-0.5,0.9C75.8,213.3,76,213.9,76.4,214.1z"/>
				</g>
			</g>
		</g>
		<g>
			<g>
				<g>
					<g>
						
							<linearGradient id="SVGID_5_" gradientUnits="userSpaceOnUse" x1="6378.5532" y1="-3297.6064" x2="6378.5532" y2="-3356.083" gradientTransform="matrix(1 0 0 1 -6228 3567.4016)">
							<stop  offset="0" style="stop-color:#7E7C7D"/>
							<stop  offset="0.4609" style="stop-color:#FFFFFF"/>
							<stop  offset="0.9805" style="stop-color:#7B7979"/>
							<stop  offset="1" style="stop-color:#7B7979"/>
						</linearGradient>
						<path class="st7" d="M129.9,261.2c-11.4-11.4-11.4-29.9,0-41.3c11.4-11.4,29.9-11.4,41.3,0c11.4,11.4,11.4,29.9,0,41.3
							C159.8,272.7,141.3,272.7,129.9,261.2z"/>
						<path class="st1" d="M133.3,257.8c-9.5-9.5-9.5-24.9,0-34.5c9.5-9.5,24.9-9.5,34.5,0c9.5,9.5,9.5,24.9,0,34.5
							C158.3,267.3,142.8,267.3,133.3,257.8z"/>
					</g>
				</g>
				<g>
					<path class="st5" d="M152.6,230.1l2.6,0l-0.5-2.4H153L152.6,230.1z M136.4,251.4h0.9v-1.6c0-1.2,0.4-2.3,1.3-3.2
						c0.8-0.9,1.9-1.4,3.1-1.4c1.2,0,2.2,0.4,3.1,1.3c0.9,0.9,1.3,2,1.3,3.2l0,1.6l11.8,0l0-20.9l-21.3,0L136.4,251.4z M138,250
						c0,1,0.4,1.9,1.1,2.7c0.7,0.7,1.5,1.1,2.5,1.1c1,0,1.8-0.4,2.5-1.1c0.7-0.7,1-1.6,1-2.7c0-1-0.4-1.9-1.1-2.6
						c-0.7-0.7-1.6-1.1-2.5-1.1c-1,0-1.8,0.4-2.5,1.1C138.3,248.1,138,249,138,250z M158.4,247.5c0.8-1.5,2-2.3,3.6-2.3
						c1.2,0,2.2,0.4,3.1,1.3c0.8,0.9,1.3,2,1.3,3.2v1.6l1.9,0l0-10c0-1-0.7-1.6-2-1.6l-0.7,0l-1.9-4.7c-0.3-0.6-0.7-0.9-1.4-0.9
						h-3.7L158.4,247.5z M158.4,250c0,1,0.4,1.9,1.1,2.7c0.7,0.7,1.5,1.1,2.5,1.1c1,0,1.8-0.4,2.5-1.1c0.7-0.7,1-1.6,1-2.7
						c0-1-0.3-1.9-1.1-2.7c-0.7-0.7-1.5-1.1-2.5-1.1c-1,0-1.8,0.4-2.5,1.1C158.8,248.1,158.4,248.9,158.4,250z M140.3,241.3l0-5.4
						l3.8,0V232l5.4,0v3.8l3.9,0l0,5.4h-3.9v3.9l-5.5,0v-3.9H140.3z M159,239.8l0-4.6h3.9l1.7,4.6L159,239.8z"/>
				</g>
			</g>
		</g>
		<g>
			<g>
				
					<linearGradient id="SVGID_6_" gradientUnits="userSpaceOnUse" x1="1905.4999" y1="-1339.1774" x2="1905.5759" y2="-1397.6539" gradientTransform="matrix(1 -1.300000e-03 1.300000e-03 1 -1690.2388 1585.5496)">
					<stop  offset="0" style="stop-color:#7E7C7D"/>
					<stop  offset="0.4609" style="stop-color:#FFFFFF"/>
					<stop  offset="0.9805" style="stop-color:#7B7979"/>
					<stop  offset="1" style="stop-color:#7B7979"/>
				</linearGradient>
				<path class="st8" d="M184.3,214.7c0-16.1,13.1-29.3,29.2-29.3c16.2,0,29.3,13.1,29.3,29.2c0,16.1-13,29.3-29.2,29.3
					C197.4,243.9,184.3,230.8,184.3,214.7z"/>
				<path class="st1" d="M189.2,214.7c0-13.5,10.9-24.4,24.3-24.4c13.5,0,24.4,10.9,24.4,24.3c0,13.5-10.9,24.4-24.3,24.4
					C200.1,239,189.2,228.2,189.2,214.7z"/>
				<path class="st5" d="M200,210.3l1.7,0v0.5l-1.7,0V210.3z M219.8,215.4l-8.8,0L200.7,204l0-2.5h1.5l10.9,8.6
					c0.6-0.7,1.5-1.1,2.4-1.1c1.7,0,3.1,1.4,3.1,3.1c0,0.7-0.2,1.4-0.6,1.9L219.8,215.4z M200.5,211c0,0.7,0.2,1.2,0.6,1.7
					c0.1,0.1,0.2,0.3,0.2,0.5c0,0.4-0.3,0.8-0.8,0.8c-0.4,0-0.8-0.3-0.8-0.8c0-0.1,0-0.2,0.1-0.2c0-0.1,0-0.1,0-0.2c0,0,0-0.1,0-0.1
					c0-0.1-0.1-0.2-0.2-0.2c0,0-0.1,0-0.1,0c0,0.1,0.1,0.2,0.1,0.3c0,0,0,0.1,0,0.1c0,0.1-0.1,0.3-0.1,0.4c0,0.7,0.6,1.3,1.2,1.3
					c0.8,0,1.4-0.6,1.4-1.4c0-0.4-0.2-0.7-0.4-1c-0.3-0.3-0.5-0.8-0.5-1.2H200.5z M200.6,204.5l0.5,0.5v5h-0.5V204.5z M220.5,220.6
					c0.8-1.5,1.9-2.2,3.4-2.2c1.1,0,2.1,0.4,2.9,1.3c0.8,0.8,1.2,1.9,1.2,3.1l0,1.6h1.8l0-9.6c0-1-0.6-1.5-1.9-1.5h-0.7l-1.8-4.4
					c-0.3-0.6-0.7-0.9-1.4-0.9h-3.5L220.5,220.6z M221,213.3V209l3.7,0l1.7,4.4L221,213.3z M220.5,223c0,1,0.3,1.8,1,2.5
					c0.7,0.7,1.5,1,2.4,1c0.9,0,1.7-0.3,2.4-1c0.7-0.7,1-1.6,1-2.5c0-1-0.3-1.8-1-2.5c-0.7-0.7-1.5-1-2.4-1c-0.9,0-1.7,0.4-2.4,1.1
					C220.8,221.2,220.5,222,220.5,223z M201,223c0,1,0.3,1.8,1,2.5c0.7,0.7,1.5,1.1,2.4,1.1c0.9,0,1.7-0.4,2.4-1.1
					c0.7-0.7,1-1.5,1-2.5c0-1-0.3-1.8-1-2.5c-0.7-0.7-1.5-1-2.4-1c-0.9,0-1.7,0.4-2.4,1.1C201.3,221.2,201,222.1,201,223z
					 M199.5,224.4h0.8v-1.6c0-1.2,0.4-2.2,1.2-3.1c0.8-0.9,1.8-1.3,2.9-1.3c1.1,0,2.1,0.4,2.9,1.3c0.8,0.8,1.2,1.9,1.2,3.1l0,1.6
					l11.2,0l0-8.4l-20.4,0L199.5,224.4z M220.6,207.2h2.5l-0.5-2.3H221L220.6,207.2z"/>
			</g>
		</g>
		<g>
			<g>
				
					<linearGradient id="SVGID_7_" gradientUnits="userSpaceOnUse" x1="1931.0945" y1="-1401.6246" x2="1931.1705" y2="-1460.1002" gradientTransform="matrix(1 -1.300000e-03 1.300000e-03 1 -1690.2388 1585.5496)">
					<stop  offset="0" style="stop-color:#7E7C7D"/>
					<stop  offset="0.4609" style="stop-color:#FFFFFF"/>
					<stop  offset="0.9805" style="stop-color:#7B7979"/>
					<stop  offset="1" style="stop-color:#7B7979"/>
				</linearGradient>
				<path class="st9" d="M259.7,172.8c-11.4,11.4-29.9,11.5-41.3,0.1c-11.4-11.4-11.5-29.9-0.1-41.4c11.4-11.4,29.9-11.5,41.4-0.1
					C271.1,142.9,271.1,161.4,259.7,172.8z"/>
				<path class="st1" d="M256.3,169.4c-9.5,9.5-24.9,9.6-34.5,0c-9.5-9.5-9.5-24.9,0-34.5c9.5-9.5,24.9-9.5,34.5,0
					C265.8,144.4,265.8,159.9,256.3,169.4z"/>
				<path class="st5" d="M255.8,149.1l-6.9-5.4l0-5.7l-3.4,0l0,3.1l-6.1-4.8l-16.5,12.9l1.5,2.1l2-1.7l0,15.6l5,0l0-12.8l6.2,0
					l0,12.8l14.7,0l0-15.6l2,1.7L255.8,149.1z M249.4,160.2l-8.2,0l0-7.6l8.2,0L249.4,160.2z"/>
			</g>
		</g>
		<g>
			<g>
				<g>
					<g>
						
							<linearGradient id="SVGID_8_" gradientUnits="userSpaceOnUse" x1="6441.52" y1="-3448.6895" x2="6441.52" y2="-3507.0986" gradientTransform="matrix(1 0 0 1 -6228 3567.4016)">
							<stop  offset="0" style="stop-color:#7E7C7D"/>
							<stop  offset="0.4609" style="stop-color:#FFFFFF"/>
							<stop  offset="0.9805" style="stop-color:#7B7979"/>
							<stop  offset="1" style="stop-color:#7B7979"/>
						</linearGradient>
						<path class="st10" d="M192.9,110.2c-11.4-11.4-11.4-29.9,0-41.3c11.4-11.4,29.9-11.4,41.3,0c11.4,11.4,11.4,29.9,0,41.3
							C222.8,121.6,204.3,121.6,192.9,110.2z"/>
						<path class="st1" d="M196.3,106.7c-9.5-9.5-9.5-24.9,0-34.4c9.5-9.5,24.9-9.5,34.4,0c9.5,9.5,9.5,24.9,0,34.4
							C221.2,116.2,205.8,116.2,196.3,106.7z"/>
					</g>
				</g>
				<path class="st2" d="M225.3,78c-1.7-1.8-4.2-2-5.6-2c-1.8,0-3.7,0.5-5.8,1.6c-0.3,0-1.8,0.1-3.3-0.6c-2.3-1-5.3-0.8-6.6-0.4
					c-0.5,0.2-4.4,1.7-3.6,8.1c0.5,4.5,4.3,17.1,6.8,19.6c0.3,0.3,0.6,0.4,1,0.4h0.9c0.5,0,1-0.3,1.2-0.7c0,0,1.4-2.6,3.3-5.1
					c1,1.1,2.4,3.2,3.5,5.1c0.2,0.5,0.7,0.7,1.2,0.7h0.3c0.4,0,0.8-0.2,1.1-0.5c2.1-2.4,7-16.4,7.2-21.7
					C227,80.7,226.4,79.1,225.3,78z M218.5,100.8c-0.8-1.3-1.9-2.9-3-4c0.4-0.5,0.9-0.9,1.4-1.2c0.6-0.5,0.7-1.4,0.3-2
					c-0.5-0.6-1.4-0.7-2-0.3c-2.8,2.1-5.3,6.1-6.6,8.1c-1.8-3.2-4.8-12.7-5.4-17c-0.5-4.3,1.7-5.1,1.8-5.1c0.5-0.2,2.3-0.3,3.9,0.1
					c-1.2,0.1-2.1,0-2.1,0c-0.8-0.1-1.5,0.4-1.6,1.2c-0.1,0.8,0.4,1.5,1.2,1.6c0.2,0,4.2,0.7,7.8-1.4c2.1-1.2,4-1.9,5.6-1.9
					c0.7,0,2.6,0.1,3.6,1.2c0.6,0.6,0.8,1.4,0.8,2.5C223.9,86.5,220.5,96.6,218.5,100.8z"/>
			</g>
		</g>
	</g>
	<g>
		<path class="st11" d="M127.5,129.9c8.8,0,14,5.5,14,14c0,8.6-5.2,13.8-14,13.8h-8.3v16.4H111v-44.2H127.5z M119.2,137.1v13.5h7
			c4,0,6.6-1.9,6.6-6.7c0-4.6-2.7-6.8-6.6-6.8H119.2z"/>
		<path class="st11" d="M147.3,174.1v-44.2h8.2v44.2H147.3z"/>
		<path class="st11" d="M190,137.1h-19v12.9h16.6v7.1H171v17h-8.2v-44.2H190V137.1z"/>
	</g>
</g>
</svg>
