<svg width="207" height="48" viewBox="0 0 207 48" fill="none" xmlns="http://www.w3.org/2000/svg">
<path fill-rule="evenodd" clip-rule="evenodd" d="M3.43208 0H0V35.0839C0 37.4475 1.79937 39.4286 4.07754 39.4286H24.0429V35.8461H5.68624C4.00692 35.8461 3.43208 34.5693 3.43208 33.3608V0ZM24.043 30.7149V34.2857H6.80604C5.62587 34.2857 4.80861 33.3613 4.80861 32.1656C4.81986 30.7621 4.80861 0 4.80861 0H8.20705V28.496C8.20705 29.7462 8.7261 30.7149 10.182 30.7149H24.043ZM24.043 25.605H14.4202C13.3509 25.605 13.0051 24.9156 13.0051 23.9744C13.0051 23.4465 13.0024 12.161 13.0008 5.26453L12.9995 0H9.61722V27.2444C9.61722 28.3876 10.5597 29.1429 11.254 29.1429H24.043V25.605ZM14.4258 0H17.7572V19.1302C17.7572 19.8253 18.0562 20.4899 19.004 20.4899H24.043V24H16.1182C14.899 24 14.4258 23.1833 14.4258 22.2508V0ZM28.8571 13.8232H19.2358L19.2344 10.2852H32.0234C32.7177 10.2852 33.6601 11.0419 33.6601 12.1837V39.428H30.2778C30.2778 39.428 30.2736 16.215 30.2736 15.4553C30.2736 14.5141 29.9279 13.8232 28.8571 13.8232ZM19.2344 8.71358V5.14258H36.4714C37.6501 5.14258 38.4687 6.06703 38.4687 7.26277C38.4561 8.66492 38.4687 39.4283 38.4687 39.4283H35.0705V10.9326C35.0705 9.68079 34.5501 8.71358 33.0972 8.71358H19.2344ZM39.8467 39.4286H43.2774V4.34619C43.2774 1.98403 41.4794 0 39.2027 0H19.2344V3.58401H37.5911C39.2705 3.58401 39.8467 4.86073 39.8467 6.06776V39.4286ZM28.8516 39.4277H25.5187V20.3004C25.5187 19.6039 25.2184 18.9393 24.2734 18.9393H19.2344V15.4277H27.1563C28.3756 15.4277 28.8516 16.2473 28.8516 17.1784V39.4277ZM125.366 20.6738C124.276 20.6738 123.449 21.6367 123.449 22.8349L123.452 39.4283H120.215V22.2517C120.215 19.4322 122.254 17.1426 124.835 17.1426H128.229V20.6738H125.366ZM68.9219 39.4283H72.1276V17.1426H68.9219V39.4283ZM148.409 27.4548C148.409 22.8095 144.683 19.0254 140.096 19.0254C135.513 19.0254 131.787 22.8095 131.787 27.4548C131.787 32.1016 135.513 35.8857 140.096 35.8857C144.683 35.8857 148.409 32.1016 148.409 27.4548ZM168.608 27.4548C168.608 22.8095 164.878 19.0254 160.292 19.0254C155.708 19.0254 151.977 22.8095 151.977 27.4548C151.977 32.1016 155.708 35.8857 160.292 35.8857C164.878 35.8857 168.608 32.1016 168.608 27.4548ZM188.798 27.4548C188.798 22.8095 185.071 19.0254 180.487 19.0254C175.899 19.0254 172.174 22.8095 172.174 27.4548C172.174 32.1016 175.899 35.8857 180.487 35.8857C185.071 35.8857 188.798 32.1016 188.798 27.4548ZM131.819 47.9992H128.232V27.4547C128.232 20.8122 133.547 15.4277 140.098 15.4277C144.365 15.4277 148.107 17.7158 150.194 21.1443C152.283 17.7158 156.026 15.4277 160.291 15.4277C164.555 15.4277 168.305 17.7144 170.388 21.1443C172.477 17.7144 176.215 15.4277 180.487 15.4277C187.038 15.4277 192.347 20.8122 192.347 27.4547C192.347 34.0971 187.038 39.4801 180.487 39.4801C176.215 39.4801 172.477 37.1949 170.388 33.7679C168.305 37.1949 164.555 39.4801 160.291 39.4801C156.026 39.4801 152.283 37.1949 150.194 33.7679C148.107 37.1949 144.365 39.4801 140.098 39.4801C136.874 39.4801 133.954 38.1766 131.819 36.0634V47.9992ZM106.591 18.8008C110.258 18.8008 113.587 21.1274 114.804 24.7597H98.3652C99.5811 21.1274 102.923 18.8008 106.591 18.8008ZM106.594 39.4277C112.18 39.4277 116.953 35.671 118.267 30.2694H114.745C113.533 33.7312 110.271 36.0578 106.594 36.0578C102.123 36.0578 98.4075 32.6968 97.971 28.1339H118.611V27.427C118.611 20.8101 113.218 15.4277 106.594 15.4277C99.9634 15.4277 94.5684 20.8101 94.5684 27.427C94.5684 34.0424 99.9634 39.4277 106.594 39.4277ZM96.1725 17.1426L87.2698 39.4283H82.6322L73.7324 17.1426H77.7858L84.9503 35.0791L92.1148 17.1426H96.1725ZM193.947 39.4294H197.153V8.57227H193.947V39.4294ZM56.489 33.6494V8.57227H52.8945V37.1028C52.8945 38.4777 53.7751 39.4279 55.2928 39.4279L67.3203 39.4294V35.8705H58.5918C57.203 35.8705 56.5006 34.8965 56.489 33.6494ZM204.328 11.005C204.652 11.005 204.863 10.8728 204.863 10.5862C204.863 10.333 204.671 10.1738 204.402 10.1738H203.727V11.005H204.328ZM203.309 9.79883H204.447C205.089 9.79883 205.302 10.2255 205.302 10.5201C205.302 10.9707 205.008 11.2923 204.573 11.3178V11.3369C204.793 11.4165 204.954 11.6554 205.167 12.0232L205.482 12.5613H204.978L204.746 12.1298C204.418 11.5105 204.296 11.3879 203.981 11.3879H203.727V12.5613H203.309V9.79883ZM204.36 8.99432C203.254 8.99432 202.363 9.94965 202.363 11.1374C202.363 12.3221 203.254 13.2869 204.36 13.2869C205.467 13.2869 206.37 12.3221 206.37 11.1374C206.37 9.94965 205.467 8.99432 204.36 8.99432ZM204.359 13.7151C203.033 13.7151 201.959 12.5608 201.959 11.1373C201.959 9.71229 203.033 8.57227 204.359 8.57227C205.69 8.57227 206.768 9.71229 206.768 11.1373C206.768 12.5608 205.69 13.7151 204.359 13.7151ZM72.1276 12.0008H68.9219V8.57227H72.1276V12.0008Z" fill="white"/>
</svg>
