<svg xmlns="http://www.w3.org/2000/svg" xmlns:xlink="http://www.w3.org/1999/xlink" viewBox="0 0 158.41 57.86"><defs><style>.cls-1{clip-path:url(#clip-path);filter:url(#luminosity-noclip-2);}.cls-2{fill:none;}.cls-3{isolation:isolate;}.cls-4{clip-path:url(#clip-path-2);}.cls-5{mask:url(#mask);}.cls-12,.cls-6{mix-blend-mode:multiply;}.cls-6{fill:url(#Degradado_sin_nombre);}.cls-7{fill:#75767a;}.cls-8{fill:#d11e88;}.cls-9{fill:#c8c8c7;}.cls-10{fill:#fff;}.cls-11{mask:url(#mask-2);}.cls-12{opacity:0.72;}.cls-13{clip-path:url(#clip-path-3);}.cls-14{clip-path:url(#clip-path-4);}.cls-15{fill:#fefefe;}.cls-16{fill:#fdfefe;}.cls-17{fill:#fcfdfd;}.cls-18{fill:#fbfbfb;}.cls-19{fill:#f9fafa;}.cls-20{fill:#f8f9f9;}.cls-21{fill:#f6f7f7;}.cls-22{fill:#f5f5f6;}.cls-23{fill:#f3f4f4;}.cls-24{fill:#f1f2f3;}.cls-25{fill:#f0f0f1;}.cls-26{fill:#eeefef;}.cls-27{fill:#ecedee;}.cls-28{fill:#ebebec;}.cls-29{fill:#e9eaeb;}.cls-30{fill:#e8e8e9;}.cls-31{fill:#e6e7e8;}.cls-32{fill:#e4e5e6;}.cls-33{fill:#e3e3e4;}.cls-34{fill:#e1e2e3;}.cls-35{fill:#dfe0e2;}.cls-36{fill:#dedfe0;}.cls-37{fill:#dcdddf;}.cls-38{fill:#dbdbdd;}.cls-39{fill:#d9dadc;}.cls-40{fill:#d7d8da;}.cls-41{fill:#d6d6d9;}.cls-42{fill:#d4d5d7;}.cls-43{fill:#d3d3d6;}.cls-44{fill:#d1d2d4;}.cls-45{fill:#d0d0d3;}.cls-46{fill:#cecfd2;}.cls-47{fill:#cdcdd0;}.cls-48{fill:#cbcccf;}.cls-49{fill:#c9cacd;}.cls-50{fill:#c8c9cc;}.cls-51{fill:#c7c7ca;}.cls-52{fill:#c5c6c9;}.cls-53{fill:#c4c5c8;}.cls-54{fill:#c3c3c6;}.cls-55{fill:#c1c2c5;}.cls-56{fill:#c0c0c3;}.cls-57{fill:#bfbfc2;}.cls-58{fill:#bdbec1;}.cls-59{fill:#bcbcbf;}.cls-60{fill:#bbbbbe;}.cls-61{fill:#bababd;}.cls-62{fill:#b9b8bb;}.cls-63{fill:#b7b7ba;}.cls-64{fill:#b6b6b9;}.cls-65{fill:#b5b5b8;}.cls-66{fill:#b4b3b6;}.cls-67{fill:#b2b2b5;}.cls-68{fill:#b1b1b4;}.cls-69{fill:#b0b0b3;}.cls-70{fill:#afaeb1;}.cls-71{fill:#aeadb0;}.cls-72{fill:#adacaf;}.cls-73{fill:#acabae;}.cls-74{fill:#abaaad;}.cls-75{fill:#aaa9ac;}.cls-76{fill:#a9a8ab;}.cls-77{fill:#a7a7aa;}.cls-78{fill:#a6a6a9;}.cls-79{fill:#a5a5a8;}.cls-80{fill:#a4a4a7;}.cls-81{fill:#a3a3a5;}.cls-82{fill:#a2a2a4;}.cls-83{fill:#a1a1a3;}.cls-84{fill:#a0a0a2;}.cls-85{fill:#9f9fa1;}.cls-86{fill:#9e9ea0;}.cls-87{fill:#9d9da0;}.cls-88{fill:#9c9c9f;}.cls-89{fill:#9c9b9e;}.cls-90{fill:#9b9a9d;}.cls-91{fill:#9a9a9c;}.cls-92{fill:#99989b;}.cls-93{fill:#98989a;}.cls-94{fill:#97979a;}.cls-95{fill:#969699;}.cls-96{fill:#959598;}.cls-97{fill:#959597;}.cls-98{fill:#949496;}.cls-99{fill:#939396;}.cls-100{fill:#929295;}.cls-101{fill:#919294;}.cls-102{fill:#919194;}.cls-103{fill:#909093;}.cls-104{fill:#8f9092;}.cls-105{fill:#8e8f92;}.cls-106{fill:#8e8e91;}.cls-107{fill:#8d8e90;}.cls-108{fill:#8c8d90;}.cls-109{fill:#8b8d8f;}.cls-110{fill:#8a8c8f;}.cls-111{fill:#8a8b8e;}.cls-112{fill:#898b8d;}.cls-113{fill:#888a8d;}.cls-114{fill:#888a8c;}.cls-115{fill:#87898c;}.cls-116{fill:#87888b;}.cls-117{fill:#86888b;}.cls-118{fill:#86888a;}.cls-119{fill:#85878a;}.cls-120{fill:#848789;}.cls-121{fill:#848689;}.cls-122{fill:#838688;}.cls-123{fill:#838588;}.cls-124{fill:#828588;}.cls-125{fill:#828587;}.cls-126{fill:#828487;}.cls-127{fill:#818487;}.cls-128{fill:#818486;}.cls-129{fill:#808386;}.cls-130{fill:#808385;}.cls-131{fill:#7f8285;}.cls-132{fill:#7e8284;}.cls-133{fill:#7e8184;}.cls-134{fill:#7d8184;}.cls-135{filter:url(#luminosity-noclip);}</style><clipPath id="clip-path"><rect class="cls-2" x="2.73" y="54.15" width="44.71" height="3.66"/></clipPath><clipPath id="clip-path-2"><path class="cls-2" d="M47.44,56.07c0,1-10,1.79-22.36,1.75s-22.35-.9-22.35-1.91,10-1.8,22.36-1.75,22.35.9,22.35,1.91"/></clipPath><filter id="luminosity-noclip" x="2.71" y="-8396.87" width="44.74" height="32766" filterUnits="userSpaceOnUse" color-interpolation-filters="sRGB"><feFlood flood-color="#fff" result="bg"/><feBlend in="SourceGraphic" in2="bg"/></filter><mask id="mask" x="2.71" y="-8396.87" width="44.74" height="32766" maskUnits="userSpaceOnUse"><g class="cls-135"/></mask><radialGradient id="Degradado_sin_nombre" cx="238.05" cy="536.13" r="1" gradientTransform="matrix(0, 22.36, 1.83, 0, -956.01, -5266.05)" gradientUnits="userSpaceOnUse"><stop offset="0" stop-color="#fff"/><stop offset="0.09" stop-color="#f8f7f7"/><stop offset="0.23" stop-color="#e3e2e1"/><stop offset="0.4" stop-color="#c2bebd"/><stop offset="0.59" stop-color="#938e8b"/><stop offset="0.81" stop-color="#59504c"/><stop offset="1" stop-color="#1e120d"/></radialGradient><filter id="luminosity-noclip-2" x="2.71" y="53.95" width="44.74" height="4.08" filterUnits="userSpaceOnUse" color-interpolation-filters="sRGB"><feFlood flood-color="#fff" result="bg"/><feBlend in="SourceGraphic" in2="bg"/></filter><mask id="mask-2" x="2.71" y="53.95" width="44.74" height="4.08" maskUnits="userSpaceOnUse"><g class="cls-1"><g class="cls-3"><g class="cls-4"><g class="cls-5"><rect class="cls-6" x="23.13" y="33.62" width="3.91" height="44.73" transform="translate(-30.99 80.87) rotate(-89.79)"/></g></g></g></g></mask><clipPath id="clip-path-3"><rect class="cls-2" x="2.73" y="54.11" width="44.72" height="3.75"/></clipPath><clipPath id="clip-path-4"><path class="cls-2" d="M47.44,56.07c0,1-10,1.79-22.36,1.75s-22.35-.9-22.35-1.91,10-1.8,22.36-1.75,22.35.9,22.35,1.91"/></clipPath></defs><title>proteccion-celular</title><g class="cls-3"><g id="Capa_2" data-name="Capa 2"><g id="Capa_1-2" data-name="Capa 1"><path class="cls-7" d="M60.76,38.7v-4a10,10,0,0,1,2.41-6.87,7.93,7.93,0,0,1,6.21-2.71,8.7,8.7,0,0,1,6.07,2,6.67,6.67,0,0,1,2.19,5.2v.19l0,.1H74.69a5,5,0,0,0-1.39-3.74,5.3,5.3,0,0,0-3.92-1.37,4.78,4.78,0,0,0-4.06,2.05,8.33,8.33,0,0,0-1.51,5.09v4a8.4,8.4,0,0,0,1.51,5.12,4.78,4.78,0,0,0,4.06,2A5.34,5.34,0,0,0,73.3,44.5a5,5,0,0,0,1.39-3.77h2.92l0,.09V41a6.74,6.74,0,0,1-2.22,5.14,8.5,8.5,0,0,1-6,2.13,7.92,7.92,0,0,1-6.21-2.7,10,10,0,0,1-2.41-6.85"/><path class="cls-7" d="M80.53,39.9v-.68a8.59,8.59,0,0,1,2.12-5.94,6.55,6.55,0,0,1,5-2.37,6.33,6.33,0,0,1,5.11,2,8.14,8.14,0,0,1,1.73,5.44v1.9H83.68l-.05.07a6.58,6.58,0,0,0,1.22,4,3.91,3.91,0,0,0,3.29,1.55,7.74,7.74,0,0,0,2.71-.44,6.11,6.11,0,0,0,2-1.21l1.19,2a7,7,0,0,1-2.37,1.47,9.35,9.35,0,0,1-3.55.59,7,7,0,0,1-5.55-2.32,8.77,8.77,0,0,1-2.06-6m3.21-2.09,0,.08h7.71v-.4a4.61,4.61,0,0,0-1-3,3.41,3.41,0,0,0-2.84-1.2,3.28,3.28,0,0,0-2.61,1.28,6.13,6.13,0,0,0-1.33,3.22"/><rect class="cls-7" x="98.21" y="25.13" width="3.04" height="23.12"/><path class="cls-7" d="M105.9,41.45V31.6h3v9.88a6.22,6.22,0,0,0,.79,3.67,2.93,2.93,0,0,0,2.46,1,5,5,0,0,0,2.68-.66,4.15,4.15,0,0,0,1.59-1.86v-12h3V48.3h-2.73l-.2-2.47a5.58,5.58,0,0,1-2,2.07,5.48,5.48,0,0,1-2.86.73,5.35,5.35,0,0,1-4.26-1.75q-1.53-1.74-1.53-5.43"/><rect class="cls-7" x="124.22" y="25.13" width="3.04" height="23.07"/><path class="cls-7" d="M131.4,43.66a4.31,4.31,0,0,1,1.93-3.74,9.09,9.09,0,0,1,5.26-1.35h3.31V36.92a3.07,3.07,0,0,0-.9-2.33,3.52,3.52,0,0,0-2.53-.85,3.73,3.73,0,0,0-2.39.74,2.26,2.26,0,0,0-.92,1.8h-2.91l0-.09V36A4.11,4.11,0,0,1,134,32.86a7.11,7.11,0,0,1,4.69-1.52,6.86,6.86,0,0,1,4.57,1.45A5.12,5.12,0,0,1,144.94,37v8a16,16,0,0,0,.09,1.73,9.19,9.19,0,0,0,.34,1.64h-3.13c-.11-.51-.19-1-.24-1.34a8.93,8.93,0,0,1-.1-1.16,7.18,7.18,0,0,1-2.22,2,5.66,5.66,0,0,1-2.94.81,5.47,5.47,0,0,1-4-1.33,4.92,4.92,0,0,1-1.36-3.69m3,.07a2.31,2.31,0,0,0,.69,1.76,2.94,2.94,0,0,0,2.06.65,5.48,5.48,0,0,0,3-.85,4.11,4.11,0,0,0,1.73-1.95V40.62h-3.42a4.43,4.43,0,0,0-2.94.93,2.78,2.78,0,0,0-1.1,2.18"/><path class="cls-7" d="M149.39,48.25v-17h2.73l.28,2.44a5.8,5.8,0,0,1,1.75-2,4.08,4.08,0,0,1,2.4-.73,3.42,3.42,0,0,1,.65.06,3.67,3.67,0,0,1,.51.11l-.42,2.83-1.56-.09a3.42,3.42,0,0,0-2,.57,3.65,3.65,0,0,0-1.27,1.6V48.25Z"/><polygon class="cls-7" points="60.82 21.13 60.82 9.65 62.08 9.65 66.33 19.76 66.38 19.76 70.65 9.65 71.92 9.65 71.92 21.13 70.96 21.13 70.96 16.06 71.04 11.04 71 11.02 66.69 21.13 66.03 21.13 61.73 11.07 61.69 11.08 61.77 16.06 61.77 21.13 60.82 21.13"/><path class="cls-7" d="M74.94,9.58h1V10.9h-1Zm0,3h1v8.53h-1Z"/><path class="cls-7" d="M81.67,21.12V9.63h4a4,4,0,0,1,2.8.92,3.15,3.15,0,0,1,1,2.43,3.18,3.18,0,0,1-1,2.45,4,4,0,0,1-2.8.91h-3v4.78Zm1-5.58h3a2.86,2.86,0,0,0,2.13-.72A2.46,2.46,0,0,0,88.47,13a2.51,2.51,0,0,0-.71-1.84,2.86,2.86,0,0,0-2.13-.72h-3Z"/><path class="cls-7" d="M91.75,21.12V12.58h.85L92.69,14v.1a3,3,0,0,1,1-1.23,2.45,2.45,0,0,1,1.48-.45,2,2,0,0,1,.35,0l.28.06-.12.88-.71,0a2.11,2.11,0,0,0-1.46.5,2.81,2.81,0,0,0-.82,1.37v5.9Z"/><path class="cls-7" d="M96.9,17v-.26a4.58,4.58,0,0,1,1-3.09,3.72,3.72,0,0,1,5.49,0,4.58,4.58,0,0,1,1,3.09V17a4.62,4.62,0,0,1-1,3.1,3.75,3.75,0,0,1-5.5,0,4.57,4.57,0,0,1-1-3.1m.95,0a4.1,4.1,0,0,0,.75,2.5,2.65,2.65,0,0,0,4.16,0,4.1,4.1,0,0,0,.75-2.5v-.26a4,4,0,0,0-.76-2.47,2.62,2.62,0,0,0-4.15,0,4,4,0,0,0-.75,2.47Z"/><path class="cls-7" d="M105.81,13.35v-.77h1.48V10.4h.94v2.18h1.89v.77h-1.89v5.57a1.81,1.81,0,0,0,.31,1.18,1,1,0,0,0,.81.35,3.17,3.17,0,0,0,.44,0l.51-.06.14.7a2.53,2.53,0,0,1-.58.16,5.19,5.19,0,0,1-.68.05,1.76,1.76,0,0,1-1.39-.56,2.65,2.65,0,0,1-.5-1.8V13.35Z"/><path class="cls-7" d="M112,17.1v-.43a4.46,4.46,0,0,1,1-3,3.28,3.28,0,0,1,2.55-1.21,3.17,3.17,0,0,1,2.47,1,3.74,3.74,0,0,1,.91,2.65v.8h-6v.23a3.76,3.76,0,0,0,.77,2.41,2.44,2.44,0,0,0,2,1,4.22,4.22,0,0,0,1.51-.25,3,3,0,0,0,1.06-.7l.41.64a3.43,3.43,0,0,1-1.22.81,4.92,4.92,0,0,1-1.76.29A3.43,3.43,0,0,1,113,20.1a4.36,4.36,0,0,1-1-3M113,16l0,0h5v-.24a2.76,2.76,0,0,0-.65-1.86,2.41,2.41,0,0,0-3.54,0,3.46,3.46,0,0,0-.83,2"/><path class="cls-7" d="M120.65,17v-.33a4.74,4.74,0,0,1,.95-3.06,3.23,3.23,0,0,1,2.68-1.2,3.4,3.4,0,0,1,2.34.83,2.67,2.67,0,0,1,.9,2.09v.14h-.85a2.08,2.08,0,0,0-.69-1.64,2.44,2.44,0,0,0-1.69-.61,2.27,2.27,0,0,0-2,1,4.33,4.33,0,0,0-.66,2.47V17a4.41,4.41,0,0,0,.66,2.5,2.28,2.28,0,0,0,2,1A2.69,2.69,0,0,0,126,20a1.78,1.78,0,0,0,.71-1.49h.84l0,.05v.08a2.38,2.38,0,0,1-1,1.9,3.53,3.53,0,0,1-2.28.79,3.25,3.25,0,0,1-2.69-1.19,4.76,4.76,0,0,1-.95-3.08"/><path class="cls-7" d="M129.36,17v-.33a4.74,4.74,0,0,1,.95-3.06,3.23,3.23,0,0,1,2.68-1.2,3.4,3.4,0,0,1,2.34.83,2.67,2.67,0,0,1,.9,2.09v.14h-.84a2.11,2.11,0,0,0-.69-1.64,2.48,2.48,0,0,0-1.7-.61,2.27,2.27,0,0,0-2,1,4.33,4.33,0,0,0-.66,2.47V17a4.41,4.41,0,0,0,.66,2.5,2.27,2.27,0,0,0,2,1,2.69,2.69,0,0,0,1.66-.54,1.76,1.76,0,0,0,.72-1.49h.83l0,.05v.08a2.38,2.38,0,0,1-.95,1.9,3.53,3.53,0,0,1-2.28.79,3.25,3.25,0,0,1-2.69-1.19,4.76,4.76,0,0,1-.95-3.08"/><path class="cls-7" d="M138.66,9.62h1v1.32h-1Zm0,3h1v8.54h-1Z"/><path class="cls-7" d="M142,17v-.26a4.58,4.58,0,0,1,1-3.09,3.72,3.72,0,0,1,5.49,0,4.58,4.58,0,0,1,1,3.09V17a4.57,4.57,0,0,1-1,3.1,3.74,3.74,0,0,1-5.49,0,4.57,4.57,0,0,1-1-3.1m.94,0a4.1,4.1,0,0,0,.75,2.5,2.65,2.65,0,0,0,4.16,0,4.1,4.1,0,0,0,.76-2.5v-.26a4,4,0,0,0-.76-2.47,2.46,2.46,0,0,0-2.08-1,2.43,2.43,0,0,0-2.08,1,4,4,0,0,0-.75,2.47Zm2.34-5.61,1.4-1.86h1.16l0,0-1.73,1.82Z"/><path class="cls-7" d="M151.89,21.12V12.58h.83l.09,1.49a3.05,3.05,0,0,1,1.11-1.22,3.12,3.12,0,0,1,1.65-.43,2.66,2.66,0,0,1,2.12.85,4.05,4.05,0,0,1,.72,2.65v5.2h-.95V15.93a3.15,3.15,0,0,0-.54-2.08,2,2,0,0,0-1.56-.61,2.45,2.45,0,0,0-1.62.53,3,3,0,0,0-.91,1.39v6Z"/><path class="cls-8" d="M24.9,1.78A22.69,22.69,0,1,0,47.59,24.46,22.68,22.68,0,0,0,24.9,1.78m0,44.77A22.09,22.09,0,1,1,47,24.46,22.09,22.09,0,0,1,24.9,46.55"/><path class="cls-7" d="M22.64,10.2V9.68h3V7.74h-7c-1.31,0-2.69.75-2.69,2.06V40.37c0,1.31,1.38,2.14,2.69,2.14h7V10.2Z"/><path class="cls-9" d="M31.52,7.74h-6.4V9.68h2.5v.52h-2.5V42.51h6.4c1.31,0,2.82-.83,2.82-2.14V9.8c0-1.31-1.51-2.06-2.82-2.06"/><path class="cls-10" d="M25.07,40.75a1.66,1.66,0,1,1,1.66-1.66,1.67,1.67,0,0,1-1.66,1.66m0-3.09a1.43,1.43,0,1,0,1.43,1.43,1.43,1.43,0,0,0-1.43-1.43"/><rect class="cls-8" x="17.42" y="12.97" width="15.43" height="22.89"/><path class="cls-8" d="M44.39,8.6a.94.94,0,1,1-.94.93.94.94,0,0,1,.94-.93"/><path class="cls-8" d="M42.49,42a1,1,0,1,1-1,1,1,1,0,0,1,1-1"/><path class="cls-9" d="M42.76,42a.94.94,0,0,1,.5.35,25.07,25.07,0,0,0,1.91-32.33.94.94,0,0,1-.48.37A24.48,24.48,0,0,1,42.76,42"/><path class="cls-8" d="M36.36,46.19a1,1,0,1,1-1,1,1,1,0,0,1,1-1"/><path class="cls-8" d="M33.42.8a.94.94,0,1,1-.93.94A.94.94,0,0,1,33.42.8"/><path class="cls-7" d="M35.41,47.29a24.25,24.25,0,0,1-10.32,2.28,24.49,24.49,0,1,1,7.4-47.83h0a.93.93,0,0,1,.19-.57,25.09,25.09,0,1,0-7.59,49,24.88,24.88,0,0,0,10.59-2.35,1,1,0,0,1-.27-.54"/><g class="cls-11"><g class="cls-12"><g class="cls-13"><g class="cls-14"><rect class="cls-10" x="2.73" y="54.11" width="44.72" height="3.75"/><path class="cls-10" d="M47.44,56.07c0,1-10,1.79-22.36,1.75S2.72,56.92,2.73,55.9s10-1.79,22.36-1.74,22.35.9,22.35,1.91"/><path class="cls-15" d="M47.27,56.07c0,1-9.94,1.78-22.19,1.73S2.9,56.91,2.9,55.91s9.94-1.78,22.19-1.74,22.18.89,22.18,1.9"/><path class="cls-16" d="M47.09,56.07c0,1-9.86,1.76-22,1.72s-22-.89-22-1.88,9.86-1.77,22-1.73,22,.89,22,1.89"/><path class="cls-17" d="M46.92,56.07c0,1-9.78,1.75-21.84,1.7S3.25,56.89,3.25,55.91,13,54.16,25.09,54.2s21.83.88,21.83,1.87"/><path class="cls-18" d="M46.74,56.07c0,1-9.7,1.73-21.66,1.69S3.42,56.89,3.43,55.91s9.7-1.74,21.66-1.7,21.65.88,21.65,1.86"/><path class="cls-19" d="M46.57,56.06c0,1-9.63,1.73-21.49,1.68S3.6,56.88,3.6,55.91s9.63-1.73,21.49-1.68,21.48.86,21.48,1.83"/><path class="cls-20" d="M46.39,56.06c0,1-9.54,1.71-21.31,1.67s-21.31-.86-21.3-1.82,9.54-1.71,21.31-1.67,21.31.86,21.3,1.82"/><path class="cls-21" d="M46.22,56.06c0,1-9.47,1.7-21.14,1.66S4,56.87,4,55.91s9.47-1.7,21.14-1.65,21.13.85,21.13,1.8"/><path class="cls-22" d="M46,56.06c0,.95-9.39,1.68-21,1.64s-21-.84-21-1.79,9.39-1.68,21-1.64,21,.84,21,1.79"/><path class="cls-23" d="M45.87,56.06c0,.94-9.31,1.67-20.79,1.63S4.3,56.85,4.3,55.91s9.31-1.67,20.79-1.63,20.78.84,20.78,1.78"/><path class="cls-24" d="M45.69,56.06c0,.93-9.23,1.65-20.61,1.61S4.47,56.84,4.47,55.91s9.24-1.65,20.62-1.61,20.61.83,20.6,1.76"/><path class="cls-25" d="M45.52,56.06c0,.92-9.16,1.64-20.44,1.6S4.64,56.84,4.65,55.91s9.15-1.64,20.44-1.6,20.43.83,20.43,1.75"/><path class="cls-26" d="M45.34,56.06c0,.92-9.07,1.63-20.26,1.58S4.82,56.83,4.82,55.91s9.08-1.62,20.27-1.58,20.26.81,20.25,1.73"/><path class="cls-27" d="M45.17,56.06c0,.91-9,1.61-20.09,1.57S5,56.82,5,55.91s9-1.61,20.09-1.57,20.08.81,20.08,1.72"/><path class="cls-28" d="M45,56.06c0,.9-8.92,1.6-19.91,1.56S5.17,56.81,5.17,55.91s8.92-1.59,19.92-1.55,19.91.8,19.9,1.7"/><path class="cls-29" d="M44.82,56.06c0,.89-8.84,1.58-19.74,1.54S5.34,56.81,5.35,55.91s8.84-1.58,19.74-1.54,19.73.8,19.73,1.69"/><path class="cls-30" d="M44.65,56.06c0,.88-8.77,1.57-19.57,1.53S5.52,56.8,5.52,55.92s8.77-1.57,19.57-1.53,19.56.78,19.56,1.67"/><path class="cls-31" d="M44.47,56.06c0,.87-8.68,1.55-19.39,1.51S5.69,56.79,5.7,55.92s8.68-1.56,19.39-1.52,19.38.78,19.38,1.66"/><path class="cls-32" d="M44.3,56.06c0,.86-8.61,1.54-19.22,1.5S5.87,56.79,5.87,55.92s8.61-1.54,19.22-1.51,19.21.78,19.21,1.65"/><path class="cls-33" d="M44.12,56.06c0,.86-8.53,1.52-19,1.48s-19-.76-19-1.62,8.53-1.53,19-1.49,19,.77,19,1.63"/><path class="cls-34" d="M44,56.05c0,.86-8.45,1.52-18.87,1.48S6.22,56.77,6.22,55.92s8.45-1.52,18.87-1.48S44,55.2,44,56.05"/><path class="cls-35" d="M43.77,56.05c0,.85-8.37,1.5-18.69,1.47S6.39,56.76,6.4,55.92s8.37-1.5,18.69-1.46,18.69.75,18.68,1.59"/><path class="cls-36" d="M43.6,56.05c0,.84-8.3,1.49-18.52,1.45S6.57,56.76,6.57,55.92s8.29-1.49,18.52-1.45,18.51.75,18.51,1.58"/><path class="cls-37" d="M43.42,56.05c0,.83-8.21,1.47-18.34,1.44S6.74,56.75,6.74,55.92,15,54.45,25.09,54.48s18.34.74,18.33,1.57"/><path class="cls-38" d="M43.25,56.05c0,.82-8.14,1.46-18.17,1.42S6.92,56.74,6.92,55.92s8.14-1.46,18.17-1.42,18.16.73,18.16,1.55"/><path class="cls-39" d="M43.07,56.05c0,.82-8.06,1.45-18,1.41s-18-.73-18-1.54,8.06-1.44,18-1.41,18,.73,18,1.54"/><path class="cls-40" d="M42.9,56.05c0,.81-8,1.43-17.82,1.4S7.27,56.73,7.27,55.92s8-1.43,17.82-1.39,17.81.72,17.81,1.52"/><path class="cls-41" d="M42.72,56.05c0,.8-7.9,1.42-17.64,1.38S7.44,56.72,7.44,55.92s7.91-1.41,17.65-1.38,17.64.71,17.63,1.51"/><path class="cls-42" d="M42.55,56.05c0,.79-7.83,1.4-17.47,1.37s-17.47-.71-17.46-1.5,7.82-1.4,17.47-1.36,17.46.7,17.46,1.49"/><path class="cls-43" d="M42.37,56.05c0,.78-7.74,1.39-17.29,1.35S7.79,56.71,7.79,55.92s7.75-1.38,17.3-1.35,17.29.7,17.28,1.48"/><path class="cls-44" d="M42.2,56.05c0,.77-7.67,1.37-17.12,1.34S8,56.7,8,55.92s7.67-1.37,17.12-1.33,17.11.68,17.11,1.46"/><path class="cls-45" d="M42,56.05c0,.76-7.59,1.36-17,1.32S8.14,56.69,8.14,55.92s7.59-1.35,17-1.32S42,55.28,42,56.05"/><path class="cls-46" d="M41.85,56.05c0,.76-7.51,1.34-16.77,1.31S8.31,56.68,8.32,55.93s7.51-1.35,16.77-1.32,16.76.68,16.76,1.44"/><path class="cls-47" d="M41.68,56.05c0,.75-7.44,1.33-16.6,1.29S8.49,56.68,8.49,55.93s7.43-1.34,16.6-1.3,16.59.67,16.59,1.42"/><path class="cls-48" d="M41.5,56.05c0,.74-7.35,1.31-16.42,1.28s-16.42-.66-16.41-1.4S16,54.61,25.09,54.64s16.41.66,16.41,1.41"/><path class="cls-49" d="M41.33,56.05c0,.73-7.28,1.3-16.25,1.27S8.84,56.66,8.84,55.93s7.28-1.31,16.25-1.27,16.24.65,16.24,1.39"/><path class="cls-50" d="M41.15,56c0,.73-7.2,1.29-16.07,1.26S9,56.65,9,55.93s7.19-1.29,16.07-1.26,16.07.65,16.06,1.37"/><path class="cls-51" d="M41,56c0,.72-7.12,1.28-15.9,1.25S9.19,56.65,9.19,55.93s7.12-1.28,15.9-1.24S41,55.33,41,56"/><path class="cls-52" d="M40.8,56c0,.71-7,1.26-15.72,1.23S9.36,56.64,9.36,55.93s7.05-1.26,15.73-1.23S40.81,55.33,40.8,56"/><path class="cls-53" d="M40.63,56c0,.71-7,1.25-15.55,1.22S9.54,56.63,9.54,55.93s7-1.25,15.55-1.22,15.54.63,15.54,1.33"/><path class="cls-54" d="M40.45,56c0,.7-6.88,1.24-15.37,1.2S9.71,56.63,9.71,55.93s6.89-1.23,15.38-1.2,15.37.62,15.36,1.31"/><path class="cls-55" d="M40.28,56c0,.69-6.81,1.22-15.2,1.19s-15.19-.61-15.19-1.3,6.81-1.22,15.2-1.19,15.19.61,15.19,1.3"/><path class="cls-56" d="M40.1,56c0,.68-6.72,1.21-15,1.18s-15-.61-15-1.29,6.73-1.2,15-1.17,15,.6,15,1.28"/><path class="cls-57" d="M39.93,56c0,.67-6.65,1.19-14.85,1.16s-14.84-.6-14.84-1.27,6.65-1.19,14.85-1.16,14.84.6,14.84,1.27"/><path class="cls-58" d="M39.76,56c0,.66-6.58,1.18-14.68,1.15s-14.67-.59-14.67-1.26S17,54.76,25.09,54.79s14.67.59,14.67,1.25"/><path class="cls-59" d="M39.58,56c0,.65-6.49,1.16-14.5,1.13s-14.5-.58-14.49-1.24,6.49-1.16,14.5-1.13,14.49.58,14.49,1.24"/><path class="cls-60" d="M39.41,56c0,.65-6.42,1.15-14.33,1.12s-14.32-.58-14.32-1.23,6.42-1.14,14.33-1.12,14.32.58,14.32,1.23"/><path class="cls-61" d="M39.23,56c0,.64-6.34,1.13-14.15,1.1s-14.15-.57-14.14-1.21,6.33-1.13,14.15-1.1S39.23,55.4,39.23,56"/><path class="cls-62" d="M39.06,56c0,.63-6.26,1.12-14,1.09s-14-.56-14-1.19,6.26-1.13,14-1.1,14,.57,14,1.2"/><path class="cls-63" d="M38.88,56c0,.62-6.18,1.1-13.8,1.08s-13.8-.56-13.79-1.18,6.18-1.11,13.8-1.08,13.79.55,13.79,1.18"/><path class="cls-64" d="M38.71,56c0,.61-6.11,1.09-13.63,1.06s-13.62-.55-13.62-1.16,6.1-1.1,13.63-1.07,13.62.55,13.62,1.17"/><path class="cls-65" d="M38.53,56c0,.6-6,1.07-13.45,1.05s-13.45-.54-13.44-1.15,6-1.08,13.45-1,13.44.54,13.44,1.15"/><path class="cls-66" d="M38.36,56c0,.6-6,1.07-13.28,1s-13.27-.53-13.27-1.13,6-1.07,13.28-1,13.27.53,13.27,1.13"/><path class="cls-67" d="M38.18,56c0,.6-5.87,1-13.1,1S12,56.53,12,55.94s5.87-1,13.11-1,13.1.53,13.09,1.12"/><path class="cls-68" d="M38,56c0,.59-5.79,1-12.93,1s-12.92-.52-12.92-1.1,5.79-1,12.93-1S38,55.45,38,56"/><path class="cls-69" d="M37.83,56c0,.58-5.71,1-12.75,1s-12.75-.51-12.75-1.09,5.72-1,12.76-1,12.75.52,12.74,1.09"/><path class="cls-70" d="M37.66,56c0,.57-5.63,1-12.58,1s-12.57-.51-12.57-1.08,5.63-1,12.58-1,12.57.5,12.57,1.07"/><path class="cls-71" d="M37.48,56c0,.56-5.55,1-12.4,1s-12.4-.5-12.4-1.06,5.56-1,12.41-1,12.4.5,12.39,1.06"/><path class="cls-72" d="M37.31,56c0,.55-5.48,1-12.23,1s-12.23-.5-12.22-1.05,5.47-1,12.23-.95,12.22.49,12.22,1"/><path class="cls-73" d="M37.14,56c0,.55-5.4,1-12.06.94s-12-.48-12-1,5.4-1,12.06-.94,12.05.49,12.05,1"/><path class="cls-74" d="M37,56c0,.54-5.32.95-11.88.93s-11.88-.48-11.87-1S18.53,55,25.09,55,37,55.49,37,56"/><path class="cls-75" d="M36.79,56c0,.53-5.25.94-11.71.91s-11.7-.47-11.7-1S18.62,55,25.09,55s11.7.47,11.7,1"/><path class="cls-76" d="M36.61,56c0,.52-5.16.92-11.53.9s-11.53-.46-11.52-1S18.72,55,25.09,55s11.52.47,11.52,1"/><path class="cls-77" d="M36.44,56c0,.51-5.09.91-11.36.89s-11.35-.46-11.35-1,5.09-.91,11.36-.88,11.35.45,11.35,1"/><path class="cls-78" d="M36.26,56c0,.5-5,.89-11.18.87S13.9,56.45,13.91,56s5-.9,11.18-.88,11.17.45,11.17,1"/><path class="cls-79" d="M36.09,56c0,.49-4.93.88-11,.86s-11-.45-11-.94,4.93-.89,11-.86,11,.44,11,.94"/><path class="cls-80" d="M35.91,56c0,.49-4.85.86-10.83.84S14.25,56.44,14.25,56s4.86-.87,10.84-.85,10.82.44,10.82.93"/><path class="cls-81" d="M35.74,56c0,.48-4.77.85-10.66.83S14.43,56.43,14.43,56s4.77-.86,10.66-.84,10.65.43,10.65.92"/><path class="cls-82" d="M35.56,56c0,.48-4.69.84-10.48.82S14.6,56.42,14.6,56s4.7-.84,10.49-.82,10.47.42,10.47.89"/><path class="cls-83" d="M35.39,56c0,.47-4.62.83-10.31.81s-10.3-.42-10.3-.88,4.62-.83,10.31-.81,10.3.42,10.3.88"/><path class="cls-84" d="M35.21,56c0,.46-4.53.82-10.13.8S15,56.41,15,56s4.54-.81,10.14-.79,10.13.41,10.12.86"/><path class="cls-85" d="M35,56c0,.45-4.46.8-10,.78s-9.95-.4-9.95-.85,4.46-.8,10-.78,10,.4,10,.85"/><path class="cls-86" d="M34.86,56c0,.44-4.38.79-9.78.77s-9.78-.4-9.78-.84,4.38-.78,9.79-.76,9.78.39,9.77.83"/><path class="cls-87" d="M34.69,56c0,.44-4.3.77-9.61.75s-9.6-.38-9.6-.82,4.3-.77,9.61-.75,9.6.39,9.6.82"/><path class="cls-88" d="M34.52,56c0,.43-4.23.76-9.44.74s-9.43-.38-9.43-.81,4.23-.75,9.44-.74,9.43.38,9.43.81"/><path class="cls-89" d="M34.34,56c0,.42-4.15.74-9.26.72s-9.26-.37-9.25-.79,4.14-.74,9.26-.72,9.25.37,9.25.79"/><path class="cls-90" d="M34.17,56c0,.41-4.07.73-9.09.71S16,56.36,16,56s4.07-.72,9.09-.71,9.08.37,9.08.78"/><path class="cls-91" d="M34,56c0,.4-4,.71-8.91.7s-8.91-.36-8.9-.77,4-.71,8.91-.69,8.9.36,8.9.76"/><path class="cls-92" d="M33.82,56c0,.39-3.92.7-8.74.68s-8.73-.35-8.73-.75,3.91-.7,8.74-.68,8.73.35,8.73.75"/><path class="cls-93" d="M33.64,56c0,.38-3.83.68-8.56.67s-8.56-.35-8.56-.73,3.84-.69,8.57-.67,8.55.34,8.55.73"/><path class="cls-94" d="M33.47,56c0,.38-3.76.67-8.39.65S16.7,56.33,16.7,56s3.76-.68,8.39-.66,8.38.34,8.38.72"/><path class="cls-95" d="M33.29,56c0,.37-3.68.65-8.21.64s-8.21-.33-8.21-.7,3.68-.66,8.22-.65,8.2.34,8.2.71"/><path class="cls-96" d="M33.12,56c0,.36-3.6.64-8,.62s-8-.32-8-.68,3.6-.65,8-.63,8,.32,8,.69"/><path class="cls-97" d="M32.94,56c0,.36-3.52.63-7.86.62s-7.86-.32-7.86-.67,3.53-.63,7.87-.62,7.85.32,7.85.67"/><path class="cls-98" d="M32.77,56c0,.35-3.44.62-7.69.61S17.4,56.31,17.4,56s3.44-.62,7.69-.6,7.68.31,7.68.65"/><path class="cls-99" d="M32.59,56c0,.34-3.36.61-7.51.59s-7.51-.3-7.51-.64,3.37-.6,7.52-.59,7.51.3,7.5.64"/><path class="cls-100" d="M32.42,56c0,.33-3.29.59-7.34.58s-7.33-.3-7.33-.63,3.28-.59,7.34-.57,7.33.29,7.33.62"/><path class="cls-101" d="M32.24,56c0,.33-3.2.58-7.16.56s-7.16-.29-7.16-.61,3.21-.57,7.17-.56,7.16.29,7.15.61"/><path class="cls-102" d="M32.07,56c0,.32-3.13.56-7,.55s-7-.28-7-.6,3.13-.56,7-.55,7,.29,7,.6"/><path class="cls-103" d="M31.9,56c0,.31-3.06.55-6.82.53s-6.81-.27-6.81-.58,3.05-.54,6.82-.53,6.81.27,6.81.58"/><path class="cls-104" d="M31.72,56c0,.3-3,.53-6.64.52s-6.63-.27-6.63-.57,3-.53,6.64-.52,6.63.27,6.63.57"/><path class="cls-105" d="M31.55,56c0,.29-2.9.52-6.47.51s-6.46-.26-6.46-.56,2.9-.51,6.47-.5,6.46.26,6.46.55"/><path class="cls-106" d="M31.37,56c0,.28-2.82.5-6.29.49s-6.29-.25-6.28-.54,2.81-.5,6.29-.49,6.28.26,6.28.54"/><path class="cls-107" d="M31.2,56c0,.27-2.74.49-6.12.48S19,56.24,19,56s2.74-.49,6.12-.47,6.11.24,6.11.52"/><path class="cls-108" d="M31,56c0,.27-2.66.47-5.94.46s-5.94-.24-5.93-.5,2.66-.48,5.94-.47S31,55.74,31,56"/><path class="cls-109" d="M30.85,56c0,.26-2.58.46-5.77.45s-5.76-.23-5.76-.49,2.58-.47,5.77-.46,5.76.24,5.76.5"/><path class="cls-110" d="M30.67,56c0,.25-2.5.44-5.59.43s-5.59-.22-5.59-.47,2.51-.45,5.6-.44,5.58.22,5.58.48"/><path class="cls-111" d="M30.5,56c0,.24-2.43.43-5.42.42s-5.41-.22-5.41-.46,2.43-.44,5.42-.43,5.41.22,5.41.47"/><path class="cls-112" d="M30.32,56c0,.23-2.34.42-5.24.41s-5.24-.22-5.24-.45,2.35-.42,5.25-.41,5.23.21,5.23.45"/><path class="cls-113" d="M30.15,56c0,.23-2.27.41-5.07.4S20,56.2,20,56s2.27-.41,5.07-.4,5.06.21,5.06.43"/><path class="cls-114" d="M30,56c0,.23-2.19.4-4.89.39s-4.89-.2-4.89-.42,2.19-.39,4.89-.38S30,55.78,30,56"/><path class="cls-115" d="M29.8,56c0,.22-2.11.38-4.72.37s-4.71-.19-4.71-.4,2.11-.38,4.72-.37,4.71.19,4.71.4"/><path class="cls-116" d="M29.62,56c0,.21-2,.37-4.54.36s-4.54-.19-4.54-.39,2-.36,4.54-.36,4.55.19,4.54.39"/><path class="cls-117" d="M29.45,56c0,.2-2,.35-4.37.34s-4.36-.17-4.36-.37,2-.35,4.37-.34,4.36.18,4.36.37"/><path class="cls-118" d="M29.28,56c0,.19-1.88.34-4.2.33s-4.19-.17-4.19-.36,1.88-.34,4.19-.33,4.2.17,4.2.36"/><path class="cls-119" d="M29.1,56c0,.18-1.8.32-4,.31s-4-.16-4-.34,1.8-.32,4-.31,4,.16,4,.34"/><path class="cls-120" d="M28.93,56c0,.17-1.72.31-3.85.3s-3.84-.15-3.84-.33,1.72-.31,3.85-.3,3.84.16,3.84.33"/><path class="cls-121" d="M28.75,56c0,.17-1.64.29-3.67.29s-3.66-.15-3.66-.32a11.64,11.64,0,0,1,3.66-.28c2,0,3.67.14,3.67.31"/><path class="cls-122" d="M28.58,56a10.85,10.85,0,0,1-3.5.27,10.58,10.58,0,0,1-3.49-.3,11.15,11.15,0,0,1,3.49-.27,11,11,0,0,1,3.5.3"/><path class="cls-123" d="M28.4,56a10.22,10.22,0,0,1-3.32.26A10.27,10.27,0,0,1,21.77,56a10.56,10.56,0,0,1,3.32-.26A10.32,10.32,0,0,1,28.4,56"/><path class="cls-124" d="M28.23,56a9.9,9.9,0,0,1-3.15.24A9.36,9.36,0,0,1,21.94,56a9.86,9.86,0,0,1,3.14-.24,9.71,9.71,0,0,1,3.15.27"/><path class="cls-125" d="M28.05,56a9.32,9.32,0,0,1-3,.23,9.51,9.51,0,0,1-3-.25,9.15,9.15,0,0,1,3-.24,9.09,9.09,0,0,1,3,.26"/><path class="cls-126" d="M27.88,56a9.14,9.14,0,0,1-2.8.22A9.08,9.08,0,0,1,22.29,56a8.41,8.41,0,0,1,2.79-.22,8.44,8.44,0,0,1,2.8.24"/><path class="cls-127" d="M27.7,56a8.38,8.38,0,0,1-2.62.2A8.08,8.08,0,0,1,22.46,56a8.25,8.25,0,0,1,2.62-.21A8.18,8.18,0,0,1,27.7,56"/><path class="cls-128" d="M27.53,56a7.89,7.89,0,0,1-2.45.19A7.78,7.78,0,0,1,22.64,56a7.46,7.46,0,0,1,2.44-.19,7.17,7.17,0,0,1,2.45.21"/><path class="cls-129" d="M27.35,56a6.61,6.61,0,0,1-2.27.18A7.13,7.13,0,0,1,22.81,56a7.31,7.31,0,0,1,2.27-.18,7.43,7.43,0,0,1,2.27.19"/><path class="cls-129" d="M27.18,56a6.43,6.43,0,0,1-2.1.17A6.91,6.91,0,0,1,23,56a6.24,6.24,0,0,1,2.09-.16,6.77,6.77,0,0,1,2.1.17"/><path class="cls-130" d="M27,56a5.7,5.7,0,0,1-1.92.15A5.85,5.85,0,0,1,23.16,56a6,6,0,0,1,1.92-.15A6.14,6.14,0,0,1,27,56"/><path class="cls-131" d="M26.83,56a5.48,5.48,0,0,1-1.75.14A5.27,5.27,0,0,1,23.34,56a5.44,5.44,0,0,1,1.74-.14,5.65,5.65,0,0,1,1.75.15"/><path class="cls-131" d="M26.66,56a4.83,4.83,0,0,1-1.58.12A5,5,0,0,1,23.51,56a4.79,4.79,0,0,1,1.57-.12,5,5,0,0,1,1.58.13"/><path class="cls-131" d="M26.48,56a4.6,4.6,0,0,1-1.4.11A4.32,4.32,0,0,1,23.69,56a4.5,4.5,0,0,1,1.39-.11,4.36,4.36,0,0,1,1.4.12"/><path class="cls-132" d="M26.31,56a3.71,3.71,0,0,1-1.23.1A3.83,3.83,0,0,1,23.86,56a3.84,3.84,0,0,1,1.22-.09,3.71,3.71,0,0,1,1.23.1"/><path class="cls-133" d="M26.13,56a3.3,3.3,0,0,1-1.05.08A3,3,0,0,1,24,56a3.64,3.64,0,0,1,1-.08,3.13,3.13,0,0,1,1.05.09"/><path class="cls-133" d="M26,56a2.76,2.76,0,0,1-.88.07,2.56,2.56,0,0,1-.87-.08,2.72,2.72,0,0,1,.87-.07A2.93,2.93,0,0,1,26,56"/><path class="cls-133" d="M25.78,56a2,2,0,0,1-.7,0,1.85,1.85,0,0,1-.69-.06,2.33,2.33,0,0,1,.69,0,2.18,2.18,0,0,1,.7.06"/><path class="cls-134" d="M25.61,56a1.89,1.89,0,0,1-.53,0,1.79,1.79,0,0,1-.52,0,1.33,1.33,0,0,1,.52-.05,2.13,2.13,0,0,1,.53.05"/><path class="cls-134" d="M25.43,56a1.08,1.08,0,0,1-.35,0,1.65,1.65,0,0,1-.35,0,1,1,0,0,1,.35,0,.92.92,0,0,1,.35,0"/><path class="cls-134" d="M25.26,56h-.35a.41.41,0,0,1,.17,0,.44.44,0,0,1,.18,0"/></g></g></g></g></g></g></g></svg>