<svg xmlns="http://www.w3.org/2000/svg" viewBox="0 0 690.98 200.56"><defs><style>.cls-1,.cls-3{fill:#5f295f;}.cls-2{fill:#e50695;}.cls-3{fill-rule:evenodd;}</style></defs><title>Recurso 1</title><g id="Capa_2" data-name="Capa 2"><g id="Capa_1-2" data-name="Capa 1"><rect class="cls-1" x="216.04" y="11.56" width="7.22" height="188.89" rx="1.04"/><path class="cls-1" d="M289.32,42.72c0,12.7-7.21,21.09-18,21.09H261.24a.45.45,0,0,0-.43.43V95.45a1,1,0,0,1-1.08,1.07h-8.18a1,1,0,0,1-1.07-1.07V22.17a1,1,0,0,1,1.07-1.08h19.26C281.9,21.09,289.32,29.81,289.32,42.72ZM279,42.93C279,35,275,30,269.2,30h-8a.46.46,0,0,0-.43.43V55.09a.45.45,0,0,0,.43.43h8C275,55.52,279,50.79,279,42.93Z"/><path class="cls-1" d="M326.66,95.66l-10-32.28c-.11-.32-.22-.32-.43-.32h-7.43a.46.46,0,0,0-.43.43v32a1,1,0,0,1-1.07,1.07h-8.18A1,1,0,0,1,298,95.45V22.17a1,1,0,0,1,1.08-1.08h19.26c11.08,0,18.51,8.72,18.51,21.41,0,9.15-4.09,16.14-10.55,18.94-.21.22-.32.32-.21.65L337.2,95.34c.22.75-.11,1.18-.86,1.18H328A1.39,1.39,0,0,1,326.66,95.66Zm-18.3-65.21V54.56a.47.47,0,0,0,.43.43h8c5.81,0,9.79-4.85,9.79-12.38,0-7.75-4-12.59-9.79-12.59h-8A.47.47,0,0,0,308.36,30.45Z"/><path class="cls-1" d="M344.19,77.69V40.14c0-11.95,7.86-19.8,19.59-19.8s19.8,7.85,19.8,19.8V77.69c0,11.94-8,19.69-19.8,19.69S344.19,89.63,344.19,77.69Zm29.06.43V39.6c0-6.14-3.77-10.33-9.47-10.33s-9.26,4.19-9.26,10.33V78.12c0,6.13,3.66,10.33,9.26,10.33S373.25,84.25,373.25,78.12Z"/><path class="cls-1" d="M429.84,22.27v6.78a1,1,0,0,1-1.07,1.08h-14.1a.45.45,0,0,0-.43.43V95.45a1,1,0,0,1-1.08,1.07H405a1,1,0,0,1-1.07-1.07V30.56a.46.46,0,0,0-.43-.43H390.14a1,1,0,0,1-1.08-1.08V22.27a1,1,0,0,1,1.08-1.07h38.63A1,1,0,0,1,429.84,22.27Z"/><path class="cls-1" d="M473.63,30.13H449.42a.46.46,0,0,0-.43.43V53.91a.47.47,0,0,0,.43.43h14.85a1,1,0,0,1,1.08,1.08V62.2a1,1,0,0,1-1.08,1.07H449.42a.47.47,0,0,0-.43.43V87.16a.46.46,0,0,0,.43.43h24.21a1,1,0,0,1,1.08,1.08v6.78a1,1,0,0,1-1.08,1.07H439.74a1,1,0,0,1-1.08-1.07V22.27a1,1,0,0,1,1.08-1.07h33.89a1,1,0,0,1,1.08,1.07v6.78A1,1,0,0,1,473.63,30.13Z"/><path class="cls-1" d="M482.56,77.91V39.71c0-11.84,7.75-19.37,19.37-19.37s19.48,7.53,19.48,19.37v1.72a1,1,0,0,1-1.08,1.07l-8.18.43a1,1,0,0,1-1.07-1.07v-2.8c0-5.92-3.66-9.79-9.15-9.79s-9,3.87-9,9.79v39.6c0,5.81,3.55,9.79,9,9.79s9.15-4,9.15-9.79v-2.8a1,1,0,0,1,1.07-1.07l8.18.43a1,1,0,0,1,1.08,1.07v1.62c0,11.83-7.75,19.47-19.48,19.47S482.56,89.74,482.56,77.91Z"/><path class="cls-1" d="M530.12,77.91V39.71c0-11.84,7.75-19.37,19.37-19.37S569,27.87,569,39.71v1.72a1,1,0,0,1-1.08,1.07l-8.18.43a1,1,0,0,1-1.07-1.07v-2.8c0-5.92-3.66-9.79-9.15-9.79s-9,3.87-9,9.79v39.6c0,5.81,3.55,9.79,9,9.79s9.15-4,9.15-9.79v-2.8a1,1,0,0,1,1.07-1.07l8.18.43A1,1,0,0,1,569,76.29v1.62c0,11.83-7.75,19.47-19.48,19.47S530.12,89.74,530.12,77.91Z"/><path class="cls-1" d="M579.19,95.45V22.27a1,1,0,0,1,1.07-1.07h8.18a1,1,0,0,1,1.08,1.07V95.45a1,1,0,0,1-1.08,1.07h-8.18A1,1,0,0,1,579.19,95.45Z"/><path class="cls-1" d="M600.27,77.69V40.14c0-11.95,7.86-19.8,19.59-19.8s19.8,7.85,19.8,19.8V77.69c0,11.94-8,19.69-19.8,19.69S600.27,89.63,600.27,77.69Zm29.06.43V39.6c0-6.14-3.77-10.33-9.47-10.33s-9.26,4.19-9.26,10.33V78.12c0,6.13,3.66,10.33,9.26,10.33S629.33,84.25,629.33,78.12ZM614.05,12.37,620.72.75A1.63,1.63,0,0,1,622,0h7.42c.86,0,1.19.65.76,1.29L622.33,13a1.31,1.31,0,0,1-1.29.65H614.8C613.94,13.67,613.61,13.13,614.05,12.37Z"/><path class="cls-1" d="M650.52,95.45V22.27a1,1,0,0,1,1.08-1.07h8.28a1.14,1.14,0,0,1,1.19.86l19.15,47.45c.11.43.54.32.54-.11V22.27a1,1,0,0,1,1.07-1.07h8.07A1,1,0,0,1,691,22.27V95.45a1,1,0,0,1-1.08,1.07h-8.39a1.12,1.12,0,0,1-1.18-.86L661.17,48.21c-.1-.43-.54-.43-.54,0l.11,47.24a1,1,0,0,1-1.07,1.07H651.6A1,1,0,0,1,650.52,95.45Z"/><path class="cls-2" d="M250.25,175.4v-33c0-10.21,6.68-16.71,16.71-16.71s16.8,6.5,16.8,16.71v1.48a.88.88,0,0,1-.93.93l-7.05.37a.88.88,0,0,1-.93-.93v-2.41c0-5.1-3.16-8.45-7.89-8.45s-7.8,3.35-7.8,8.45v34.16c0,5,3.06,8.45,7.8,8.45s7.89-3.44,7.89-8.45v-2.41a.88.88,0,0,1,.93-.93l7.05.37a.88.88,0,0,1,.93.93v1.39c0,10.21-6.68,16.8-16.8,16.8S250.25,185.61,250.25,175.4Z"/><path class="cls-2" d="M326.73,134.19H305.85a.4.4,0,0,0-.38.37V154.7a.4.4,0,0,0,.38.37h12.81a.87.87,0,0,1,.92.93v5.85a.88.88,0,0,1-.92.93H305.85a.4.4,0,0,0-.38.37v20.23a.4.4,0,0,0,.38.37h20.88a.88.88,0,0,1,.93.93v5.85a.88.88,0,0,1-.93.93H297.49a.88.88,0,0,1-.93-.93V127.41a.88.88,0,0,1,.93-.93h29.24a.88.88,0,0,1,.93.93v5.85A.88.88,0,0,1,326.73,134.19Z"/><path class="cls-2" d="M339.72,190.53V127.41a.88.88,0,0,1,.93-.93h7.06a.87.87,0,0,1,.92.93v56a.4.4,0,0,0,.38.37H369.8a.87.87,0,0,1,.92.93v5.85a.87.87,0,0,1-.92.93H340.65A.88.88,0,0,1,339.72,190.53Z"/><path class="cls-2" d="M380.1,173.82V127.41a.87.87,0,0,1,.92-.93h7.06a.88.88,0,0,1,.93.93v47.34c0,5.75,3.15,9.75,7.89,9.75s8-4,8-9.75V127.41a.88.88,0,0,1,.93-.93h7.05a.88.88,0,0,1,.93.93v46.41c0,11.05-6.78,18.38-16.89,18.38S380.1,184.87,380.1,173.82Z"/><path class="cls-2" d="M427.9,190.53V127.41a.87.87,0,0,1,.92-.93h7.06a.88.88,0,0,1,.93.93v56a.39.39,0,0,0,.37.37H458a.88.88,0,0,1,.93.93v5.85a.88.88,0,0,1-.93.93H428.82A.87.87,0,0,1,427.9,190.53Z"/><path class="cls-2" d="M498,190.62l-2-10.67c0-.19-.28-.37-.46-.37h-15c-.18,0-.46.18-.46.37l-2.14,10.67a.93.93,0,0,1-1,.84h-7a.8.8,0,0,1-.84-1l13.83-63.12a.94.94,0,0,1,1-.84H492a.93.93,0,0,1,1,.84l14,63.12a.8.8,0,0,1-.84,1H499A.93.93,0,0,1,498,190.62Zm-16.06-18.1h12.26c.18,0,.27-.18.27-.37l-6.12-31.74c-.1-.37-.28-.37-.37,0l-6.31,31.74C481.64,172.34,481.73,172.52,481.91,172.52Z"/><path class="cls-2" d="M543.36,190.71l-8.64-27.84c-.09-.28-.18-.28-.37-.28H528a.4.4,0,0,0-.37.37v27.57a.88.88,0,0,1-.93.93h-7.06a.87.87,0,0,1-.92-.93V127.32a.87.87,0,0,1,.92-.93h16.62c9.56,0,16,7.52,16,18.47,0,7.89-3.53,13.92-9.1,16.34-.19.18-.28.28-.19.55l9.56,28.69c.19.65-.09,1-.74,1h-7.24A1.2,1.2,0,0,1,543.36,190.71Zm-15.78-56.24v20.79a.4.4,0,0,0,.37.37h6.87c5,0,8.44-4.18,8.44-10.68,0-6.68-3.43-10.86-8.44-10.86H528A.4.4,0,0,0,527.58,134.47Z"/><path class="cls-3" d="M71.1,29.56a1.52,1.52,0,1,0-1.51,1.52A1.52,1.52,0,0,0,71.1,29.56Z"/><rect class="cls-1" x="29.31" y="44.46" width="80.54" height="114.42"/><path class="cls-3" d="M53.57,37A2.44,2.44,0,0,0,56,39.47H83.17a2.44,2.44,0,0,0,0-4.87H56A2.45,2.45,0,0,0,53.57,37Z"/><path class="cls-3" d="M22.19,45.22a94.5,94.5,0,0,0,0,121.68Z"/><path class="cls-3" d="M94.5,11.56A94.1,94.1,0,0,0,47.55,24H100a17.08,17.08,0,0,1,17,17v130a17.08,17.08,0,0,1-17,17H47.55a94.51,94.51,0,1,0,47-176.53Z"/><path class="cls-3" d="M56,171.92a2.44,2.44,0,1,0,0,4.87H83.17a2.44,2.44,0,0,0,0-4.87Z"/></g></g></svg>